<svg version="1.1" class="highcharts-root" style="font-family:&quot;Lucida Grande&quot;, &quot;Lucida Sans Unicode&quot;, Arial, Helvetica, sans-serif;font-size:12px;cursor:pointer;" xmlns="http://www.w3.org/2000/svg" width="613" height="170" viewBox="0 0 613 170"><desc>Created with Highcharts 9.3.3</desc><defs><clipPath id="highcharts-pb5p1iu-307-"><rect x="0" y="0" width="564" height="124" fill="none"></rect></clipPath><clipPath id="highcharts-pb5p1iu-355-"><rect x="0" y="0" width="564" height="124" fill="none"></rect></clipPath><clipPath id="highcharts-pb5p1iu-356-"><rect x="39" y="10" width="564" height="124" fill="none"></rect></clipPath></defs><rect fill="transparent" class="highcharts-background" x="0" y="0" width="613" height="170" rx="0" ry="0"></rect><rect fill="none" class="highcharts-plot-background" x="39" y="10" width="564" height="124"></rect><g class="highcharts-grid highcharts-xaxis-grid" data-z-index="1"><path fill="none" stroke-dasharray="none" data-z-index="1" class="highcharts-grid-line" d="M 50.5 10 L 50.5 134" opacity="1"></path><path fill="none" stroke-dasharray="none" data-z-index="1" class="highcharts-grid-line" d="M 62.5 10 L 62.5 134" opacity="1"></path><path fill="none" stroke-dasharray="none" data-z-index="1" class="highcharts-grid-line" d="M 73.5 10 L 73.5 134" opacity="1"></path><path fill="none" stroke-dasharray="none" data-z-index="1" class="highcharts-grid-line" d="M 85.5 10 L 85.5 134" opacity="1"></path><path fill="none" stroke-dasharray="none" data-z-index="1" class="highcharts-grid-line" d="M 97.5 10 L 97.5 134" opacity="1"></path><path fill="none" stroke-dasharray="none" data-z-index="1" class="highcharts-grid-line" d="M 109.5 10 L 109.5 134" opacity="1"></path><path fill="none" stroke-dasharray="none" data-z-index="1" class="highcharts-grid-line" d="M 120.5 10 L 120.5 134" opacity="1"></path><path fill="none" stroke-dasharray="none" data-z-index="1" class="highcharts-grid-line" d="M 132.5 10 L 132.5 134" opacity="1"></path><path fill="none" stroke-dasharray="none" data-z-index="1" class="highcharts-grid-line" d="M 144.5 10 L 144.5 134" opacity="1"></path><path fill="none" stroke-dasharray="none" data-z-index="1" class="highcharts-grid-line" d="M 156.5 10 L 156.5 134" opacity="1"></path><path fill="none" stroke-dasharray="none" data-z-index="1" class="highcharts-grid-line" d="M 167.5 10 L 167.5 134" opacity="1"></path><path fill="none" stroke-dasharray="none" data-z-index="1" class="highcharts-grid-line" d="M 179.5 10 L 179.5 134" opacity="1"></path><path fill="none" stroke-dasharray="none" data-z-index="1" class="highcharts-grid-line" d="M 191.5 10 L 191.5 134" opacity="1"></path><path fill="none" stroke-dasharray="none" data-z-index="1" class="highcharts-grid-line" d="M 203.5 10 L 203.5 134" opacity="1"></path><path fill="none" stroke-dasharray="none" data-z-index="1" class="highcharts-grid-line" d="M 214.5 10 L 214.5 134" opacity="1"></path><path fill="none" stroke-dasharray="none" data-z-index="1" class="highcharts-grid-line" d="M 226.5 10 L 226.5 134" opacity="1"></path><path fill="none" stroke-dasharray="none" data-z-index="1" class="highcharts-grid-line" d="M 238.5 10 L 238.5 134" opacity="1"></path><path fill="none" stroke-dasharray="none" data-z-index="1" class="highcharts-grid-line" d="M 250.5 10 L 250.5 134" opacity="1"></path><path fill="none" stroke-dasharray="none" data-z-index="1" class="highcharts-grid-line" d="M 261.5 10 L 261.5 134" opacity="1"></path><path fill="none" stroke-dasharray="none" data-z-index="1" class="highcharts-grid-line" d="M 273.5 10 L 273.5 134" opacity="1"></path><path fill="none" stroke-dasharray="none" data-z-index="1" class="highcharts-grid-line" d="M 285.5 10 L 285.5 134" opacity="1"></path><path fill="none" stroke-dasharray="none" data-z-index="1" class="highcharts-grid-line" d="M 297.5 10 L 297.5 134" opacity="1"></path><path fill="none" stroke-dasharray="none" data-z-index="1" class="highcharts-grid-line" d="M 308.5 10 L 308.5 134" opacity="1"></path><path fill="none" stroke-dasharray="none" data-z-index="1" class="highcharts-grid-line" d="M 320.5 10 L 320.5 134" opacity="1"></path><path fill="none" stroke-dasharray="none" data-z-index="1" class="highcharts-grid-line" d="M 332.5 10 L 332.5 134" opacity="1"></path><path fill="none" stroke-dasharray="none" data-z-index="1" class="highcharts-grid-line" d="M 344.5 10 L 344.5 134" opacity="1"></path><path fill="none" stroke-dasharray="none" data-z-index="1" class="highcharts-grid-line" d="M 355.5 10 L 355.5 134" opacity="1"></path><path fill="none" stroke-dasharray="none" data-z-index="1" class="highcharts-grid-line" d="M 367.5 10 L 367.5 134" opacity="1"></path><path fill="none" stroke-dasharray="none" data-z-index="1" class="highcharts-grid-line" d="M 379.5 10 L 379.5 134" opacity="1"></path><path fill="none" stroke-dasharray="none" data-z-index="1" class="highcharts-grid-line" d="M 391.5 10 L 391.5 134" opacity="1"></path><path fill="none" stroke-dasharray="none" data-z-index="1" class="highcharts-grid-line" d="M 402.5 10 L 402.5 134" opacity="1"></path><path fill="none" stroke-dasharray="none" data-z-index="1" class="highcharts-grid-line" d="M 414.5 10 L 414.5 134" opacity="1"></path><path fill="none" stroke-dasharray="none" data-z-index="1" class="highcharts-grid-line" d="M 426.5 10 L 426.5 134" opacity="1"></path><path fill="none" stroke-dasharray="none" data-z-index="1" class="highcharts-grid-line" d="M 438.5 10 L 438.5 134" opacity="1"></path><path fill="none" stroke-dasharray="none" data-z-index="1" class="highcharts-grid-line" d="M 449.5 10 L 449.5 134" opacity="1"></path><path fill="none" stroke-dasharray="none" data-z-index="1" class="highcharts-grid-line" d="M 461.5 10 L 461.5 134" opacity="1"></path><path fill="none" stroke-dasharray="none" data-z-index="1" class="highcharts-grid-line" d="M 473.5 10 L 473.5 134" opacity="1"></path><path fill="none" stroke-dasharray="none" data-z-index="1" class="highcharts-grid-line" d="M 485.5 10 L 485.5 134" opacity="1"></path><path fill="none" stroke-dasharray="none" data-z-index="1" class="highcharts-grid-line" d="M 496.5 10 L 496.5 134" opacity="1"></path><path fill="none" stroke-dasharray="none" data-z-index="1" class="highcharts-grid-line" d="M 508.5 10 L 508.5 134" opacity="1"></path><path fill="none" stroke-dasharray="none" data-z-index="1" class="highcharts-grid-line" d="M 520.5 10 L 520.5 134" opacity="1"></path><path fill="none" stroke-dasharray="none" data-z-index="1" class="highcharts-grid-line" d="M 532.5 10 L 532.5 134" opacity="1"></path><path fill="none" stroke-dasharray="none" data-z-index="1" class="highcharts-grid-line" d="M 543.5 10 L 543.5 134" opacity="1"></path><path fill="none" stroke-dasharray="none" data-z-index="1" class="highcharts-grid-line" d="M 555.5 10 L 555.5 134" opacity="1"></path><path fill="none" stroke-dasharray="none" data-z-index="1" class="highcharts-grid-line" d="M 567.5 10 L 567.5 134" opacity="1"></path><path fill="none" stroke-dasharray="none" data-z-index="1" class="highcharts-grid-line" d="M 579.5 10 L 579.5 134" opacity="1"></path><path fill="none" stroke-dasharray="none" data-z-index="1" class="highcharts-grid-line" d="M 590.5 10 L 590.5 134" opacity="1"></path><path fill="none" stroke-dasharray="none" data-z-index="1" class="highcharts-grid-line" d="M 602.5 10 L 602.5 134" opacity="1"></path><path fill="none" stroke-dasharray="none" data-z-index="1" class="highcharts-grid-line" d="M 38.5 10 L 38.5 134" opacity="1"></path></g><g class="highcharts-grid highcharts-yaxis-grid" data-z-index="1"><path fill="none" stroke="rgba(247, 250, 255, 0.12)" stroke-width="1" stroke-dasharray="none" data-z-index="1" class="highcharts-grid-line" d="M 39 134.5 L 603 134.5" opacity="1"></path><path fill="none" stroke="rgba(247, 250, 255, 0.12)" stroke-width="1" stroke-dasharray="none" data-z-index="1" class="highcharts-grid-line" d="M 39 72.5 L 603 72.5" opacity="1"></path><path fill="none" stroke="rgba(247, 250, 255, 0.12)" stroke-width="1" stroke-dasharray="none" data-z-index="1" class="highcharts-grid-line" d="M 39 9.5 L 603 9.5" opacity="1"></path></g><rect fill="none" class="highcharts-plot-border" data-z-index="1" x="39" y="10" width="564" height="124"></rect><g class="highcharts-axis highcharts-xaxis" data-z-index="2"><path fill="none" class="highcharts-axis-line" data-z-index="7" d="M 39 134 L 603 134"></path></g><g class="highcharts-axis highcharts-yaxis" data-z-index="2"><path fill="none" class="highcharts-axis-line" data-z-index="7" d="M 39 10 L 39 134"></path></g><path fill="none" class="highcharts-crosshair highcharts-crosshair-category" data-z-index="2" stroke="rgba(255, 255, 255, 0.1)" stroke-width="11.75" style="pointer-events:none;" visibility="hidden" d="M 396.5 10 L 396.5 134"></path><g class="highcharts-series-group" data-z-index="3"><g class="highcharts-series highcharts-series-0 highcharts-column-series highcharts-tracker" data-z-index="0.1" opacity="1" transform="translate(39,10) scale(1 1)" clip-path="url(#highcharts-pb5p1iu-355-)" style="cursor:pointer;"><path fill="#523461" d="M 6 119 L 6 119 C 7.5 119 9 120.5 9 122 L 9 122 C 9 123.5 7.5 125 6 125 L 6 125 C 4.5 125 3 123.5 3 122 L 3 122 C 3 120.5 4.5 119 6 119 Z" opacity="1" class="highcharts-point"></path><path fill="#523461" d="M 18 119 L 18 119 C 19.5 119 21 120.5 21 122 L 21 122 C 21 123.5 19.5 125 18 125 L 18 125 C 16.5 125 15 123.5 15 122 L 15 122 C 15 120.5 16.5 119 18 119 Z" opacity="1" class="highcharts-point"></path><path fill="#523461" d="M 30 119 L 30 119 C 31.5 119 33 120.5 33 122 L 33 122 C 33 123.5 31.5 125 30 125 L 30 125 C 28.5 125 27 123.5 27 122 L 27 122 C 27 120.5 28.5 119 30 119 Z" opacity="1" class="highcharts-point"></path><path fill="#523461" d="M 41 119 L 41 119 C 42.5 119 44 120.5 44 122 L 44 122 C 44 123.5 42.5 125 41 125 L 41 125 C 39.5 125 38 123.5 38 122 L 38 122 C 38 120.5 39.5 119 41 119 Z" opacity="1" class="highcharts-point"></path><path fill="#523461" d="M 53 119 L 53 119 C 54.5 119 56 120.5 56 122 L 56 122 C 56 123.5 54.5 125 53 125 L 53 125 C 51.5 125 50 123.5 50 122 L 50 122 C 50 120.5 51.5 119 53 119 Z" opacity="1" class="highcharts-point"></path><path fill="#523461" d="M 65 119 L 65 119 C 66.5 119 68 120.5 68 122 L 68 122 C 68 123.5 66.5 125 65 125 L 65 125 C 63.5 125 62 123.5 62 122 L 62 122 C 62 120.5 63.5 119 65 119 Z" opacity="1" class="highcharts-point"></path><path fill="#523461" d="M 77 119 L 77 119 C 78.5 119 80 120.5 80 122 L 80 122 C 80 123.5 78.5 125 77 125 L 77 125 C 75.5 125 74 123.5 74 122 L 74 122 C 74 120.5 75.5 119 77 119 Z" opacity="1" class="highcharts-point"></path><path fill="#523461" d="M 88 119 L 88 119 C 89.5 119 91 120.5 91 122 L 91 122 C 91 123.5 89.5 125 88 125 L 88 125 C 86.5 125 85 123.5 85 122 L 85 122 C 85 120.5 86.5 119 88 119 Z" opacity="1" class="highcharts-point"></path><path fill="#523461" d="M 100 119 L 100 119 C 101.5 119 103 120.5 103 122 L 103 122 C 103 123.5 101.5 125 100 125 L 100 125 C 98.5 125 97 123.5 97 122 L 97 122 C 97 120.5 98.5 119 100 119 Z" opacity="1" class="highcharts-point"></path><path fill="#523461" d="M 112 117 L 112 117 C 113.5 117 115 118.5 115 120 L 115 122 C 115 123.5 113.5 125 112 125 L 112 125 C 110.5 125 109 123.5 109 122 L 109 120 C 109 118.5 110.5 117 112 117 Z" opacity="1" class="highcharts-point"></path><path fill="#523461" d="M 124 110 L 124 110 C 125.5 110 127 111.5 127 113 L 127 122 C 127 123.5 125.5 125 124 125 L 124 125 C 122.5 125 121 123.5 121 122 L 121 113 C 121 111.5 122.5 110 124 110 Z" opacity="1" class="highcharts-point"></path><path fill="#523461" d="M 135 104 L 135 104 C 136.5 104 138 105.5 138 107 L 138 122 C 138 123.5 136.5 125 135 125 L 135 125 C 133.5 125 132 123.5 132 122 L 132 107 C 132 105.5 133.5 104 135 104 Z" opacity="1" class="highcharts-point"></path><path fill="#523461" d="M 147 94 L 147 94 C 148.5 94 150 95.5 150 97 L 150 122 C 150 123.5 148.5 125 147 125 L 147 125 C 145.5 125 144 123.5 144 122 L 144 97 C 144 95.5 145.5 94 147 94 Z" opacity="1" class="highcharts-point"></path><path fill="#523461" d="M 159 86 L 159 86 C 160.5 86 162 87.5 162 89 L 162 122 C 162 123.5 160.5 125 159 125 L 159 125 C 157.5 125 156 123.5 156 122 L 156 89 C 156 87.5 157.5 86 159 86 Z" opacity="1" class="highcharts-point"></path><path fill="#523461" d="M 171 74 L 171 74 C 172.5 74 174 75.5 174 77 L 174 122 C 174 123.5 172.5 125 171 125 L 171 125 C 169.5 125 168 123.5 168 122 L 168 77 C 168 75.5 169.5 74 171 74 Z" opacity="1" class="highcharts-point"></path><path fill="#523461" d="M 182 58 L 182 58 C 183.5 58 185 59.5 185 61 L 185 122 C 185 123.5 183.5 125 182 125 L 182 125 C 180.5 125 179 123.5 179 122 L 179 61 C 179 59.5 180.5 58 182 58 Z" opacity="1" class="highcharts-point"></path><path fill="#523461" d="M 194 48 L 194 48 C 195.5 48 197 49.5 197 51 L 197 122 C 197 123.5 195.5 125 194 125 L 194 125 C 192.5 125 191 123.5 191 122 L 191 51 C 191 49.5 192.5 48 194 48 Z" opacity="1" class="highcharts-point"></path><path fill="#523461" d="M 206 47 L 206 47 C 207.5 47 209 48.5 209 50 L 209 122 C 209 123.5 207.5 125 206 125 L 206 125 C 204.5 125 203 123.5 203 122 L 203 50 C 203 48.5 204.5 47 206 47 Z" opacity="1" class="highcharts-point"></path><path fill="#BF5AF2" d="M 218 42 L 218 42 C 219.5 42 221 43.5 221 45 L 221 122 C 221 123.5 219.5 125 218 125 L 218 125 C 216.5 125 215 123.5 215 122 L 215 45 C 215 43.5 216.5 42 218 42 Z" opacity="1" class="highcharts-point highcharts-point-select"></path><path fill="rgb(82,52,97)" d="M 229 38 L 229 38 C 230.5 38 232 39.5 232 41 L 232 122 C 232 123.5 230.5 125 229 125 L 229 125 C 227.5 125 226 123.5 226 122 L 226 41 C 226 39.5 227.5 38 229 38 Z" opacity="1" class="highcharts-point"></path><path fill="rgb(82,52,97)" d="M 241 39 L 241 39 C 242.5 39 244 40.5 244 42 L 244 122 C 244 123.5 242.5 125 241 125 L 241 125 C 239.5 125 238 123.5 238 122 L 238 42 C 238 40.5 239.5 39 241 39 Z" opacity="1" class="highcharts-point"></path><path fill="rgb(82,52,97)" d="M 253 56 L 253 56 C 254.5 56 256 57.5 256 59 L 256 122 C 256 123.5 254.5 125 253 125 L 253 125 C 251.5 125 250 123.5 250 122 L 250 59 C 250 57.5 251.5 56 253 56 Z" opacity="1" class="highcharts-point"></path><path fill="rgb(82,52,97)" d="M 265 74 L 265 74 C 266.5 74 268 75.5 268 77 L 268 122 C 268 123.5 266.5 125 265 125 L 265 125 C 263.5 125 262 123.5 262 122 L 262 77 C 262 75.5 263.5 74 265 74 Z" opacity="1" class="highcharts-point"></path><path fill="#523461" d="M 276 82 L 276 82 C 277.5 82 279 83.5 279 85 L 279 122 C 279 123.5 277.5 125 276 125 L 276 125 C 274.5 125 273 123.5 273 122 L 273 85 C 273 83.5 274.5 82 276 82 Z" opacity="1" class="highcharts-point"></path><path fill="rgb(82,52,97)" d="M 288 80 L 288 80 C 289.5 80 291 81.5 291 83 L 291 122 C 291 123.5 289.5 125 288 125 L 288 125 C 286.5 125 285 123.5 285 122 L 285 83 C 285 81.5 286.5 80 288 80 Z" opacity="1" class="highcharts-point"></path><path fill="#523461" d="M 300 82 L 300 82 C 301.5 82 303 83.5 303 85 L 303 122 C 303 123.5 301.5 125 300 125 L 300 125 C 298.5 125 297 123.5 297 122 L 297 85 C 297 83.5 298.5 82 300 82 Z" opacity="1" class="highcharts-point"></path><path fill="rgb(82,52,97)" d="M 312 86 L 312 86 C 313.5 86 315 87.5 315 89 L 315 122 C 315 123.5 313.5 125 312 125 L 312 125 C 310.5 125 309 123.5 309 122 L 309 89 C 309 87.5 310.5 86 312 86 Z" opacity="1" class="highcharts-point"></path><path fill="#523461" d="M 323 95 L 323 95 C 324.5 95 326 96.5 326 98 L 326 122 C 326 123.5 324.5 125 323 125 L 323 125 C 321.5 125 320 123.5 320 122 L 320 98 C 320 96.5 321.5 95 323 95 Z" opacity="1" class="highcharts-point"></path><path fill="#523461" d="M 335 100 L 335 100 C 336.5 100 338 101.5 338 103 L 338 122 C 338 123.5 336.5 125 335 125 L 335 125 C 333.5 125 332 123.5 332 122 L 332 103 C 332 101.5 333.5 100 335 100 Z" opacity="1" class="highcharts-point"></path><path fill="rgb(82,52,97)" d="M 347 100 L 347 100 C 348.5 100 350 101.5 350 103 L 350 122 C 350 123.5 348.5 125 347 125 L 347 125 C 345.5 125 344 123.5 344 122 L 344 103 C 344 101.5 345.5 100 347 100 Z" opacity="1" class="highcharts-point"></path><path fill="rgb(82,52,97)" d="M 359 104 L 359 104 C 360.5 104 362 105.5 362 107 L 362 122 C 362 123.5 360.5 125 359 125 L 359 125 C 357.5 125 356 123.5 356 122 L 356 107 C 356 105.5 357.5 104 359 104 Z" opacity="1" class="highcharts-point"></path><path fill="rgb(82,52,97)" d="M 370 109 L 370 109 C 371.5 109 373 110.5 373 112 L 373 122 C 373 123.5 371.5 125 370 125 L 370 125 C 368.5 125 367 123.5 367 122 L 367 112 C 367 110.5 368.5 109 370 109 Z" opacity="1" class="highcharts-point"></path><path fill="#523461" d="M 382 115 L 382 115 C 383.5 115 385 116.5 385 118 L 385 122 C 385 123.5 383.5 125 382 125 L 382 125 C 380.5 125 379 123.5 379 122 L 379 118 C 379 116.5 380.5 115 382 115 Z" opacity="1" class="highcharts-point"></path><path fill="#523461" d="M 394 117 L 394 117 C 395.5 117 397 118.5 397 120 L 397 122 C 397 123.5 395.5 125 394 125 L 394 125 C 392.5 125 391 123.5 391 122 L 391 120 C 391 118.5 392.5 117 394 117 Z" opacity="1" class="highcharts-point"></path><path fill="#523461" d="M 406 118 L 406 118 C 407.5 118 409 119.5 409 121 L 409 122 C 409 123.5 407.5 125 406 125 L 406 125 C 404.5 125 403 123.5 403 122 L 403 121 C 403 119.5 404.5 118 406 118 Z" opacity="1" class="highcharts-point"></path><path fill="rgb(82,52,97)" d="M 417 118 L 417 118 C 418.5 118 420 119.5 420 121 L 420 122 C 420 123.5 418.5 125 417 125 L 417 125 C 415.5 125 414 123.5 414 122 L 414 121 C 414 119.5 415.5 118 417 118 Z" opacity="1" class="highcharts-point"></path><path fill="#523461" d="M 429 117 L 429 117 C 430.5 117 432 118.5 432 120 L 432 122 C 432 123.5 430.5 125 429 125 L 429 125 C 427.5 125 426 123.5 426 122 L 426 120 C 426 118.5 427.5 117 429 117 Z" opacity="1" class="highcharts-point"></path><path fill="#523461" d="M 441 116 L 441 116 C 442.5 116 444 117.5 444 119 L 444 122 C 444 123.5 442.5 125 441 125 L 441 125 C 439.5 125 438 123.5 438 122 L 438 119 C 438 117.5 439.5 116 441 116 Z" opacity="1" class="highcharts-point"></path><path fill="#523461" d="M 453 116 L 453 116 C 454.5 116 456 117.5 456 119 L 456 122 C 456 123.5 454.5 125 453 125 L 453 125 C 451.5 125 450 123.5 450 122 L 450 119 C 450 117.5 451.5 116 453 116 Z" opacity="1" class="highcharts-point"></path><path fill="#523461" d="M 464 116 L 464 116 C 465.5 116 467 117.5 467 119 L 467 122 C 467 123.5 465.5 125 464 125 L 464 125 C 462.5 125 461 123.5 461 122 L 461 119 C 461 117.5 462.5 116 464 116 Z" opacity="1" class="highcharts-point"></path><path fill="#523461" d="M 476 116 L 476 116 C 477.5 116 479 117.5 479 119 L 479 122 C 479 123.5 477.5 125 476 125 L 476 125 C 474.5 125 473 123.5 473 122 L 473 119 C 473 117.5 474.5 116 476 116 Z" opacity="1" class="highcharts-point"></path><path fill="#523461" d="M 488 116 L 488 116 C 489.5 116 491 117.5 491 119 L 491 122 C 491 123.5 489.5 125 488 125 L 488 125 C 486.5 125 485 123.5 485 122 L 485 119 C 485 117.5 486.5 116 488 116 Z" opacity="1" class="highcharts-point"></path><path fill="#523461" d="M 500 116 L 500 116 C 501.5 116 503 117.5 503 119 L 503 122 C 503 123.5 501.5 125 500 125 L 500 125 C 498.5 125 497 123.5 497 122 L 497 119 C 497 117.5 498.5 116 500 116 Z" opacity="1" class="highcharts-point"></path><path fill="#523461" d="M 511 118 L 511 118 C 512.5 118 514 119.5 514 121 L 514 122 C 514 123.5 512.5 125 511 125 L 511 125 C 509.5 125 508 123.5 508 122 L 508 121 C 508 119.5 509.5 118 511 118 Z" opacity="1" class="highcharts-point"></path><path fill="#523461" d="M 523 118 L 523 118 C 524.5 118 526 119.5 526 121 L 526 122 C 526 123.5 524.5 125 523 125 L 523 125 C 521.5 125 520 123.5 520 122 L 520 121 C 520 119.5 521.5 118 523 118 Z" opacity="1" class="highcharts-point"></path><path fill="#523461" d="M 535 119 L 535 119 C 536.5 119 538 120.5 538 122 L 538 122 C 538 123.5 536.5 125 535 125 L 535 125 C 533.5 125 532 123.5 532 122 L 532 122 C 532 120.5 533.5 119 535 119 Z" opacity="1" class="highcharts-point"></path><path fill="#523461" d="M 547 119 L 547 119 C 548.5 119 550 120.5 550 122 L 550 122 C 550 123.5 548.5 125 547 125 L 547 125 C 545.5 125 544 123.5 544 122 L 544 122 C 544 120.5 545.5 119 547 119 Z" opacity="1" class="highcharts-point"></path><path fill="#523461" d="M 558 119 L 558 119 C 559.5 119 561 120.5 561 122 L 561 122 C 561 123.5 559.5 125 558 125 L 558 125 C 556.5 125 555 123.5 555 122 L 555 122 C 555 120.5 556.5 119 558 119 Z" opacity="1" class="highcharts-point"></path></g><g class="highcharts-markers highcharts-series-0 highcharts-column-series" data-z-index="0.1" opacity="1" transform="translate(39,10) scale(1 1)" clip-path="none"></g></g><text x="307" text-anchor="middle" class="highcharts-title" data-z-index="4" style="color:#333333;font-size:18px;fill:#333333;" y="24"></text><text x="307" text-anchor="middle" class="highcharts-subtitle" data-z-index="4" style="color:#666666;fill:#666666;" y="24"></text><text x="10" text-anchor="start" class="highcharts-caption" data-z-index="4" style="color:#666666;fill:#666666;" y="167"></text><g class="highcharts-annotation" opacity="1" data-z-index="6" visibility="visible"><g class="highcharts-annotation-shapes" clip-path="url(#highcharts-pb5p1iu-356-)"></g><g class="highcharts-annotation-labels" transform="translate(0,0)"><g class="highcharts-label highcharts-annotation-label highcharts-no-tooltip" transform="translate(216,13)" style="border-radius:8;"><path fill="#424242" class="highcharts-label-box highcharts-annotation-label-box" d="M 3 0 L 78 0 C 81 0 81 0 81 3 L 81 20 C 81 23 81 23 78 23 L 47 23 L 41 29 L 35 23 L 3 23 C 0 23 0 23 0 20 L 0 3 C 0 0 0 0 3 0"></path><text x="5" data-z-index="1" y="16" style="color:#FFFFFF;font-size:11px;font-weight:normal;fill:#FFFFFF;">You are here!</text></g></g></g><g class="highcharts-axis-labels highcharts-xaxis-labels" data-z-index="7"><text x="44.875" style="color:rgba(239, 242, 246, 0.6);cursor:default;font-size:11px;line-height:13px;font-weight:400;fill:rgba(239, 242, 246, 0.6);" text-anchor="middle" transform="translate(0,0)" y="153" opacity="1">39.1</text><text x="0" style="color:rgba(239, 242, 246, 0.6);cursor:default;font-size:11px;line-height:13px;font-weight:400;fill:rgba(239, 242, 246, 0.6);" text-anchor="middle" transform="translate(0,0)" y="-9999">40.5</text><text x="0" style="color:rgba(239, 242, 246, 0.6);cursor:default;font-size:11px;line-height:13px;font-weight:400;fill:rgba(239, 242, 246, 0.6);" text-anchor="middle" transform="translate(0,0)" y="-9999">40.8</text><text x="0" style="color:rgba(239, 242, 246, 0.6);cursor:default;font-size:11px;line-height:13px;font-weight:400;fill:rgba(239, 242, 246, 0.6);" text-anchor="middle" transform="translate(0,0)" y="-9999">40.9</text><text x="0" style="color:rgba(239, 242, 246, 0.6);cursor:default;font-size:11px;line-height:13px;font-weight:400;fill:rgba(239, 242, 246, 0.6);" text-anchor="middle" transform="translate(0,0)" y="-9999">41</text><text x="0" style="color:rgba(239, 242, 246, 0.6);cursor:default;font-size:11px;line-height:13px;font-weight:400;fill:rgba(239, 242, 246, 0.6);" text-anchor="middle" transform="translate(0,0)" y="-9999">41.1</text><text x="0" style="color:rgba(239, 242, 246, 0.6);cursor:default;font-size:11px;line-height:13px;font-weight:400;fill:rgba(239, 242, 246, 0.6);" text-anchor="middle" transform="translate(0,0)" y="-9999">41.2</text><text x="0" style="color:rgba(239, 242, 246, 0.6);cursor:default;font-size:11px;line-height:13px;font-weight:400;fill:rgba(239, 242, 246, 0.6);" text-anchor="middle" transform="translate(0,0)" y="-9999">41.3</text><text x="0" style="color:rgba(239, 242, 246, 0.6);cursor:default;font-size:11px;line-height:13px;font-weight:400;fill:rgba(239, 242, 246, 0.6);" text-anchor="middle" transform="translate(0,0)" y="-9999">41.4</text><text x="0" style="color:rgba(239, 242, 246, 0.6);cursor:default;font-size:11px;line-height:13px;font-weight:400;fill:rgba(239, 242, 246, 0.6);" text-anchor="middle" transform="translate(0,0)" y="-9999">41.5</text><text x="162.375" style="color:rgba(239, 242, 246, 0.6);cursor:default;font-size:11px;line-height:13px;font-weight:400;fill:rgba(239, 242, 246, 0.6);" text-anchor="middle" transform="translate(0,0)" y="153" opacity="1">41.6</text><text x="0" style="color:rgba(239, 242, 246, 0.6);cursor:default;font-size:11px;line-height:13px;font-weight:400;fill:rgba(239, 242, 246, 0.6);" text-anchor="middle" transform="translate(0,0)" y="-9999">41.7</text><text x="0" style="color:rgba(239, 242, 246, 0.6);cursor:default;font-size:11px;line-height:13px;font-weight:400;fill:rgba(239, 242, 246, 0.6);" text-anchor="middle" transform="translate(0,0)" y="-9999">41.8</text><text x="0" style="color:rgba(239, 242, 246, 0.6);cursor:default;font-size:11px;line-height:13px;font-weight:400;fill:rgba(239, 242, 246, 0.6);" text-anchor="middle" transform="translate(0,0)" y="-9999">41.9</text><text x="0" style="color:rgba(239, 242, 246, 0.6);cursor:default;font-size:11px;line-height:13px;font-weight:400;fill:rgba(239, 242, 246, 0.6);" text-anchor="middle" transform="translate(0,0)" y="-9999">42</text><text x="0" style="color:rgba(239, 242, 246, 0.6);cursor:default;font-size:11px;line-height:13px;font-weight:400;fill:rgba(239, 242, 246, 0.6);" text-anchor="middle" transform="translate(0,0)" y="-9999">42.1</text><text x="0" style="color:rgba(239, 242, 246, 0.6);cursor:default;font-size:11px;line-height:13px;font-weight:400;fill:rgba(239, 242, 246, 0.6);" text-anchor="middle" transform="translate(0,0)" y="-9999">42.2</text><text x="0" style="color:rgba(239, 242, 246, 0.6);cursor:default;font-size:11px;line-height:13px;font-weight:400;fill:rgba(239, 242, 246, 0.6);" text-anchor="middle" transform="translate(0,0)" y="-9999">42.3</text><text x="0" style="color:rgba(239, 242, 246, 0.6);cursor:default;font-size:11px;line-height:13px;font-weight:400;fill:rgba(239, 242, 246, 0.6);" text-anchor="middle" transform="translate(0,0)" y="-9999">42.4</text><text x="0" style="color:rgba(239, 242, 246, 0.6);cursor:default;font-size:11px;line-height:13px;font-weight:400;fill:rgba(239, 242, 246, 0.6);" text-anchor="middle" transform="translate(0,0)" y="-9999">42.5</text><text x="279.875" style="color:rgba(239, 242, 246, 0.6);cursor:default;font-size:11px;line-height:13px;font-weight:400;fill:rgba(239, 242, 246, 0.6);" text-anchor="middle" transform="translate(0,0)" y="153" opacity="1">42.6</text><text x="0" style="color:rgba(239, 242, 246, 0.6);cursor:default;font-size:11px;line-height:13px;font-weight:400;fill:rgba(239, 242, 246, 0.6);" text-anchor="middle" transform="translate(0,0)" y="-9999">42.7</text><text x="0" style="color:rgba(239, 242, 246, 0.6);cursor:default;font-size:11px;line-height:13px;font-weight:400;fill:rgba(239, 242, 246, 0.6);" text-anchor="middle" transform="translate(0,0)" y="-9999">42.8</text><text x="0" style="color:rgba(239, 242, 246, 0.6);cursor:default;font-size:11px;line-height:13px;font-weight:400;fill:rgba(239, 242, 246, 0.6);" text-anchor="middle" transform="translate(0,0)" y="-9999">42.9</text><text x="0" style="color:rgba(239, 242, 246, 0.6);cursor:default;font-size:11px;line-height:13px;font-weight:400;fill:rgba(239, 242, 246, 0.6);" text-anchor="middle" transform="translate(0,0)" y="-9999">43</text><text x="0" style="color:rgba(239, 242, 246, 0.6);cursor:default;font-size:11px;line-height:13px;font-weight:400;fill:rgba(239, 242, 246, 0.6);" text-anchor="middle" transform="translate(0,0)" y="-9999">43.1</text><text x="0" style="color:rgba(239, 242, 246, 0.6);cursor:default;font-size:11px;line-height:13px;font-weight:400;fill:rgba(239, 242, 246, 0.6);" text-anchor="middle" transform="translate(0,0)" y="-9999">43.2</text><text x="0" style="color:rgba(239, 242, 246, 0.6);cursor:default;font-size:11px;line-height:13px;font-weight:400;fill:rgba(239, 242, 246, 0.6);" text-anchor="middle" transform="translate(0,0)" y="-9999">43.3</text><text x="0" style="color:rgba(239, 242, 246, 0.6);cursor:default;font-size:11px;line-height:13px;font-weight:400;fill:rgba(239, 242, 246, 0.6);" text-anchor="middle" transform="translate(0,0)" y="-9999">43.4</text><text x="0" style="color:rgba(239, 242, 246, 0.6);cursor:default;font-size:11px;line-height:13px;font-weight:400;fill:rgba(239, 242, 246, 0.6);" text-anchor="middle" transform="translate(0,0)" y="-9999">43.5</text><text x="397.375" style="color:rgba(239, 242, 246, 0.6);cursor:default;font-size:11px;line-height:13px;font-weight:400;fill:rgba(239, 242, 246, 0.6);" text-anchor="middle" transform="translate(0,0)" y="153" opacity="1">43.6</text><text x="0" style="color:rgba(239, 242, 246, 0.6);cursor:default;font-size:11px;line-height:13px;font-weight:400;fill:rgba(239, 242, 246, 0.6);" text-anchor="middle" transform="translate(0,0)" y="-9999">43.7</text><text x="0" style="color:rgba(239, 242, 246, 0.6);cursor:default;font-size:11px;line-height:13px;font-weight:400;fill:rgba(239, 242, 246, 0.6);" text-anchor="middle" transform="translate(0,0)" y="-9999">43.8</text><text x="0" style="color:rgba(239, 242, 246, 0.6);cursor:default;font-size:11px;line-height:13px;font-weight:400;fill:rgba(239, 242, 246, 0.6);" text-anchor="middle" transform="translate(0,0)" y="-9999">43.9</text><text x="0" style="color:rgba(239, 242, 246, 0.6);cursor:default;font-size:11px;line-height:13px;font-weight:400;fill:rgba(239, 242, 246, 0.6);" text-anchor="middle" transform="translate(0,0)" y="-9999">44</text><text x="0" style="color:rgba(239, 242, 246, 0.6);cursor:default;font-size:11px;line-height:13px;font-weight:400;fill:rgba(239, 242, 246, 0.6);" text-anchor="middle" transform="translate(0,0)" y="-9999">44.1</text><text x="0" style="color:rgba(239, 242, 246, 0.6);cursor:default;font-size:11px;line-height:13px;font-weight:400;fill:rgba(239, 242, 246, 0.6);" text-anchor="middle" transform="translate(0,0)" y="-9999">44.2</text><text x="0" style="color:rgba(239, 242, 246, 0.6);cursor:default;font-size:11px;line-height:13px;font-weight:400;fill:rgba(239, 242, 246, 0.6);" text-anchor="middle" transform="translate(0,0)" y="-9999">44.3</text><text x="0" style="color:rgba(239, 242, 246, 0.6);cursor:default;font-size:11px;line-height:13px;font-weight:400;fill:rgba(239, 242, 246, 0.6);" text-anchor="middle" transform="translate(0,0)" y="-9999">44.4</text><text x="0" style="color:rgba(239, 242, 246, 0.6);cursor:default;font-size:11px;line-height:13px;font-weight:400;fill:rgba(239, 242, 246, 0.6);" text-anchor="middle" transform="translate(0,0)" y="-9999">44.5</text><text x="514.875" style="color:rgba(239, 242, 246, 0.6);cursor:default;font-size:11px;line-height:13px;font-weight:400;fill:rgba(239, 242, 246, 0.6);" text-anchor="middle" transform="translate(0,0)" y="153" opacity="1">44.6</text><text x="0" style="color:rgba(239, 242, 246, 0.6);cursor:default;font-size:11px;line-height:13px;font-weight:400;fill:rgba(239, 242, 246, 0.6);" text-anchor="middle" transform="translate(0,0)" y="-9999">44.7</text><text x="0" style="color:rgba(239, 242, 246, 0.6);cursor:default;font-size:11px;line-height:13px;font-weight:400;fill:rgba(239, 242, 246, 0.6);" text-anchor="middle" transform="translate(0,0)" y="-9999">44.8</text><text x="0" style="color:rgba(239, 242, 246, 0.6);cursor:default;font-size:11px;line-height:13px;font-weight:400;fill:rgba(239, 242, 246, 0.6);" text-anchor="middle" transform="translate(0,0)" y="-9999">44.9</text><text x="0" style="color:rgba(239, 242, 246, 0.6);cursor:default;font-size:11px;line-height:13px;font-weight:400;fill:rgba(239, 242, 246, 0.6);" text-anchor="middle" transform="translate(0,0)" y="-9999">45</text><text x="0" style="color:rgba(239, 242, 246, 0.6);cursor:default;font-size:11px;line-height:13px;font-weight:400;fill:rgba(239, 242, 246, 0.6);" text-anchor="middle" transform="translate(0,0)" y="-9999">45.1</text><text x="0" style="color:rgba(239, 242, 246, 0.6);cursor:default;font-size:11px;line-height:13px;font-weight:400;fill:rgba(239, 242, 246, 0.6);" text-anchor="middle" transform="translate(0,0)" y="-9999">45.2</text><text x="0" style="color:rgba(239, 242, 246, 0.6);cursor:default;font-size:11px;line-height:13px;font-weight:400;fill:rgba(239, 242, 246, 0.6);" text-anchor="middle" transform="translate(0,0)" y="-9999">45.3</text></g><g class="highcharts-axis-labels highcharts-yaxis-labels" data-z-index="7"><text x="17.044270515441895" style="color:rgba(239, 242, 246, 0.6);cursor:default;font-size:11px;line-height:13px;font-weight:400;fill:rgba(239, 242, 246, 0.6);" text-anchor="middle" transform="translate(0,0)" y="139" opacity="1">0</text><text x="17.044270515441895" style="color:rgba(239, 242, 246, 0.6);cursor:default;font-size:11px;line-height:13px;font-weight:400;fill:rgba(239, 242, 246, 0.6);" text-anchor="middle" transform="translate(0,0)" y="77" opacity="1">5</text><text x="17.044270515441895" style="color:rgba(239, 242, 246, 0.6);cursor:default;font-size:11px;line-height:13px;font-weight:400;fill:rgba(239, 242, 246, 0.6);" text-anchor="middle" transform="translate(0,0)" y="15" opacity="1">10</text></g><g class="highcharts-label highcharts-tooltip highcharts-color-undefined" style="cursor:default;white-space:nowrap;pointer-events:none;" data-z-index="8" transform="translate(250,-9999)" opacity="0" visibility="hidden"><path fill="transparent" class="highcharts-label-box highcharts-tooltip-box" d="M 3 0 L 294 0 C 297 0 297 0 297 3 L 297 29 C 297 32 297 32 294 32 L 3 32 C 0 32 0 32 0 29 L 0 3 C 0 0 0 0 3 0"></path></g><g class="highcharts-control-points" data-z-index="99" clip-path="url(#highcharts-pb5p1iu-356-)"></g></svg>